<svg width="42" height="17" viewBox="0 0 42 17" fill="none" xmlns="http://www.w3.org/2000/svg">
<g clip-path="url(#clip0)">
<path d="M0 0H42V14.0426H21V16.383H11.6667V14.0426H0V0ZM2.33333 11.7021H7V4.68085H9.33333V11.7021H11.6667V2.34043H2.33333V11.7021ZM14 2.34043V14.0426H18.6667V11.7021H23.3333V2.34043H14ZM18.6667 4.68085H21V9.3617H18.6667V4.68085ZM25.6667 2.34043V11.7021H30.3333V4.68085H32.6667V11.7021H35V4.68085H37.3333V11.7021H39.6667V2.34043H25.6667Z" fill="#CB3837"/>
<path d="M2.33301 11.7022H6.99967V4.68088H9.33301V11.7022H11.6663V2.34045H2.33301V11.7022Z" fill="white"/>
<path d="M14 2.34045V14.0426H18.6667V11.7022H23.3333V2.34045H14ZM21 9.36173H18.6667V4.68088H21V9.36173Z" fill="white"/>
<path d="M25.667 2.34045V11.7022H30.3337V4.68088H32.667V11.7022H35.0003V4.68088H37.3337V11.7022H39.667V2.34045H25.667Z" fill="white"/>
</g>
<defs>
<clipPath id="clip0">
<rect width="42" height="16.383" fill="white"/>
</clipPath>
</defs>
</svg>
